<?xml version="1.0" encoding="UTF-8"?><svg id="a" xmlns="http://www.w3.org/2000/svg" viewBox="0 0 860.66 507.12"><path d="M21.61,314.31c9.62-7.44,20.71-9.44,28.83-10.91,7.18-1.3,25.7-3.76,45.55,4.86,19.28,8.37,28.24,23.74,29.49,44.23,.19,3.09-.85,4.01-3.91,3.96-10.48-.16-20.96-.12-31.44-.02-2.47,.02-3.34-.66-3.64-3.29-1.45-12.65-8.15-19.47-19.37-20.15-13.77-.84-22.08,4.67-24.63,17.85-2.19,11.27-2.28,22.88,.2,34.16,2.73,12.44,10.82,17.74,24.29,17.03,12.33-.65,19.03-6.73,20.7-19.25,.42-3.14,1.78-3.68,4.55-3.64,9.65,.14,19.3,.22,28.94-.03,3.66-.09,4.43,1.18,4.31,4.58-.74,21.93-13.23,38.96-34.28,45.17-9.65,2.85-19.39,4.15-29.1,3.87-6.1-.17-14.65-.46-25-4.22,0,0-10.45-3.8-18.25-9.96-23.61-18.63-27.58-80.79,2.76-104.23Z" fill="#3876b2"/><path d="M275.7,367.88c0,19.12-.14,38.24,.1,57.36,.05,4.31-1.35,5.25-5.37,5.14-9.98-.27-19.97-.28-29.95,0-4.03,.11-5.45-.8-5.34-5.12,.31-12.46,0-24.94,.18-37.41,.06-3.67-.58-5.29-4.84-5.17-11.31,.33-22.63,.28-33.95,.02-4.02-.09-5.47,.84-5.37,5.15,.3,12.46-.02,24.94,.18,37.41,.06,3.73-.68,5.25-4.86,5.13-10.64-.32-21.3-.19-31.95-.05-2.93,.04-4.05-.69-4.04-3.86,.1-39.41,.1-78.81,0-118.22,0-3.24,1.24-3.85,4.12-3.81,10.82,.13,21.64,.16,32.45-.01,3.27-.05,4.32,.96,4.28,4.25-.16,12.3,.06,24.61-.14,36.91-.06,3.57,.7,4.94,4.62,4.85,11.64-.27,23.3-.28,34.94,0,4,.1,4.62-1.41,4.56-4.9-.19-12.13,.08-24.28-.16-36.41-.08-3.78,1.03-4.81,4.76-4.72,10.31,.25,20.64,.29,30.95-.01,4.13-.12,4.93,1.35,4.9,5.11-.17,19.45-.08,38.91-.08,58.36Z" fill="#3876b2"/><path d="M517.78,143.71c-4.88-41.55-24.07-75.82-54.07-104.41-17.25-16.44-37.43-28.56-58.53-39.3h-2c-.39,2.18,1.02,3.79,1.83,5.56,9.24,20.17,7.19,39.02-6.43,56.59-6.83,8.82-14.37,17.02-21.8,25.32-10.9,12.16-21.41,24.6-27.92,39.83-25.52,59.63,18.07,108.4,58.29,118.4,3.04,.75,13.9,3.16,14.04,2.66,0,0-.01-.01-.01-.02,6.26,.77,12.56,.48,18.87-.05,.53,0,1.04-.05,1.55-.13h0c.07,.25,5.26-.98,15.56-3.68,29.94-11.28,51.33-30.77,59.48-62.6,3.21-12.55,2.63-25.43,1.14-38.15Zm-46.18,88.36c-5.22,4.45-11.66,6.98-16.73,11.54-.58,.18-1.13,.36-1.67,.53,.13-.12,.27-.22,.4-.34,14.26-9.89,22.21-22.56,22.01-40.86-.36-33.68-24.7-64.41-54.77-78.25-1.37-.63-2.96-1.29-4.24-.17-1.4,1.22-.49,2.86,.06,4.16,4.87,11.45,1.2,20.89-6.43,29.73-6.06,7.03-12.82,13.47-17.78,21.44-6.27,10.08-9.47,20.77-7.39,32.68,2.34,13.42,9.72,23.35,21.27,30.34,.43,.27,.84,.56,1.26,.84-.18-.04-.38-.1-.6-.2-.56-.26-.92-.65-1.1-.9-12.43-5.24-22.57-13.45-30.38-24.32-8.92-12.43-11.05-26.54-10.16-41.64,1.24-20.95,7.74-39.95,18.81-57.6,13.32-21.23,31.71-36.92,53.42-48.99,3.06-1.7,5.95-3.83,9.49-5.06,.04,.77,.08,.93,.05,1.09-.15,.82-.5,1.58-.81,2.35-5.9,14.54-3.72,27.96,5.54,40.43,5.06,6.82,10.83,13.03,16.45,19.37,7.28,8.21,14.58,16.42,19.48,26.39,13.27,27.01,8.17,56.68-16.19,77.45Z" fill="#f6c715"/><path d="M485.94,487.93c.02,4.98-.04,9.96,.09,14.94,.06,2.28-.65,3.12-3.08,3.28-10.05,.65-10.05,.74-10.05-9.25,0-10.29,.1-20.59-.06-30.88-.05-3.04,.9-4.13,3.97-3.96,5.12,.28,11.28-1.46,15.12,.83,3.96,2.36,3.11,9.29,4.79,14.09,1.03,2.94,1.61,6.03,2.75,10.47,2.14-8.21,4.03-15.01,5.64-21.87,.6-2.57,1.7-3.63,4.39-3.51,4.15,.18,8.31,.11,12.46,.03,2.15-.04,3.44,.42,3.41,2.98-.17,13.6-.23,27.2-.33,40.8-.29,.18-.59,.35-.91,.38-6.3,.44-9.43,.65-11-.81-1.55-1.44-1.38-3.19-1.63-10.81-.15-4.71-.36-8.48-.5-10.78-3.06,8.87-5.04,15.16-5.67,18.41-.11,.58-.38,2.16-1.63,3.1-1.15,.86-2.73,.83-4.52,.73-3.13-.17-6.59,1.08-7.56-3.98-1.05-5.5-3.01-10.84-4.57-16.24-.35-.85-.69-1.69-1.04-2.54-.03,1.53-.06,3.07-.09,4.6Z" fill="#3876b2"/><path d="M179.76,485.17c0,6.91-.1,12.2,.04,17.48,.07,2.56-.78,3.39-3.41,3.5-9.75,.4-9.75,.5-9.75-9.09,0-9.97,.13-19.94-.07-29.91-.07-3.65,.6-5.04,4.8-5.24,5.78-.28,9.62,1.47,12.98,6.14,3.63,5.06,8.06,9.55,13.03,15.33,0-6.49,.21-11.71-.07-16.91-.2-3.57,1.07-4.48,4.51-4.43,8.69,.12,8.69-.04,8.69,8.67,0,10.47-.09,20.94,.06,31.41,.04,2.95-.76,3.84-3.86,4.11-6.17,.53-10.69-1.08-14.36-6.41-3.35-4.87-7.71-9.04-12.6-14.63Z" fill="#3876b2"/><path d="M766.11,506.86c-4.2,.2-8.28-.4-12.23-1.88-2.56-.95-4.73-2.41-6.31-4.66-1.69-2.41-2.92-5.33-1.91-7.95,1.03-2.67,4.13-1.07,6.28-1.19,3.07-.17,6.42-1.16,7.92,3.47,.81,2.51,8.26,3.01,10.51,1.12,2.63-2.21,.77-3.57-1.25-4.24-3.3-1.09-6.73-1.8-10.12-2.63-2.59-.63-5.15-1.32-7.41-2.82-8.2-5.44-7.82-17.38,1.02-21.69,8.33-4.07,17.04-3.89,25.57-.22,2.15,.93,3.99,2.39,5.21,4.49,1.13,1.92,2.15,4.12,1.29,6.13-.97,2.28-3.51,1.07-5.33,1.12-3.48,.11-6.9,.78-9.49-3.26-1.56-2.44-5.19-1.38-7.9-.37-.79,.3-1.36,1.12-1.21,2,.26,1.5,1.5,2.15,2.82,2.5,4.66,1.22,9.41,2.15,13.98,3.64,5.1,1.66,8.64,5,8.79,10.81,.16,5.97-2.03,10.74-7.62,13.44-2.7,1.31-5.59,2.12-8.64,2.19-1.33,.03-2.66,0-3.99,0Z" fill="#3876b2"/><path d="M699.82,478.05c0,3.82,.08,7.64-.02,11.46-.22,8.4-4.61,14.15-12.73,16.35-5.86,1.59-11.83,1.63-17.73,.09-8.35-2.18-12.94-7.34-13.32-15.85-.37-8.29-.1-16.6-.14-24.91,0-1.6,.06-3.06,2.23-3.06,3.32,0,6.65-.01,9.97,0,2.67,0,2.11,1.96,2.12,3.56,0,7.31-.14,14.62,.06,21.92,.15,5.67,2.51,8.29,7.01,8.56,4.92,.29,8.09-2.55,8.22-7.82,.17-7.14,.3-14.29-.05-21.42-.2-4.13,1.31-4.98,5.1-4.9,9.28,.2,9.29,.02,9.29,9.05,0,2.33,0,4.65,0,6.98Z" fill="#3876b2"/><path d="M311.19,484.32c0,9.1,2.76,12.56,9.37,11.8,2.88-.33,4.94-1.67,6.13-4.41,.58-1.34,.05-3.67,2.63-3.53,3.46,.18,7.02-.7,10.36,.5,1.2,.43,.67,2.1,.52,3.2-.85,6.02-3.73,10.69-9.53,12.99-7.75,3.06-15.62,2.99-23.34-.11-4.74-1.9-7.8-5.58-9.38-10.41-2.08-6.34-2.16-12.75-.32-19.15,1.79-6.21,5.79-10.47,12.01-12.26,6.86-1.98,13.78-2.08,20.53,.64,2.66,1.07,5,2.68,6.68,5.05,2.35,3.33,5.13,7.78,2.89,10.9-2.17,3.02-7.4,.86-11.27,1.09-1.16,.07-1.69-.92-1.89-1.97-.97-5.1-4.34-6.96-9.09-6.17-5.14,.86-6.27,4.82-6.29,9.34,0,.83,0,1.66,0,2.49Z" fill="#3876b2"/><path d="M550.42,365.51c.25-1.24,.98-1.24,1.56-1.49,17.6-7.36,24.12-28.28,13.62-44.4-7.59-11.64-19.34-15.04-32.4-15.1-25.27-.1-50.55,.08-75.82-.13-4.31-.04-5.58,.92-5.55,5.42,.2,36.21,.11,72.43,.11,108.64q0,11.82,11.9,11.82c25.44-.03,50.89,.25,76.32-.24,16.79-.33,30.81-12.69,32.7-27.52,2.46-19.29-4.72-31.21-22.42-37Zm-58.07-33.1c1.21,0,3.09-.03,5.39-.08,10.25-.22,14.15,.08,20.4,.11,7.25,.04,11.03,3.63,11.05,10.42,.02,7.03-3.5,10.45-10.81,10.49-3.48,.02-6.97,0-11.26,0l-14.82,.05,.05-20.99Zm31.09,68.46c-10.17,.28-18.83,.15-28.35,.13-1.32,0-2.36,.01-2.89,.02,.05-7.08,.1-14.16,.15-21.24,.8,0,2.01,0,3.49,0,11.48,0,10.59,.04,13.43,.04,4.64,0,9.29-.12,13.93,.03,5.51,.19,8.73,3.88,8.87,9.85,.16,6.59-2.99,11-8.62,11.16Z" fill="#3876b2"/><path d="M857.41,343.42c-6.2-22.82-25.55-36.79-52-38.27-20.27-1.13-40.56-.27-60.83-.74-4.21-.1-4.86,1.44-4.83,5.14,.16,19.27,.07,38.54,.08,57.82,0,19.6,.04,39.21-.05,58.81-.01,2.77,.34,4.21,3.7,4.18,19.62-.2,39.24-.05,58.86-.32,7.49-.1,14.84-1.6,22-3.98,17.28-5.75,28.45-17.37,33.15-34.88,4.25-15.86,4.23-31.89-.08-47.75Zm-38.91,35.96c-1.38,12.65-9.43,19.96-22.22,20.57-3.98,.19-8-.16-11.97,.12-3.23,.22-3.89-1.08-3.84-4.02,.16-9.64,.06-19.28,.06-28.92,0-9.47,.09-18.95-.05-28.42-.04-2.83,.86-3.83,3.7-3.68,3.98,.2,7.99-.07,11.97,.09,12.92,.52,20.78,7.54,22.32,20.37,.95,7.93,.91,15.96,.04,23.89Z" fill="#3876b2"/><path d="M720.59,427.88c-14.6-40.07-29.24-80.13-43.8-120.22-.88-2.41-2.16-3.24-4.75-3.22-13.14,.13-26.28,.17-39.42-.02-3.27-.05-4.6,1.21-5.65,4.11-9.97,27.63-20.07,55.22-30.14,82.82-4.65,12.75-9.32,25.5-14.23,38.93,9.4,0,18.16,.1,26.93-.04,4.78-.08,10.51,1.88,14.09-.82,3.37-2.54,3.28-8.4,4.5-12.86,.78-2.87,2.12-3.94,5.2-3.86,8.64,.22,17.3,.04,25.94,.09,4.48,.02,9.91-1.34,13.17,.7,3.56,2.22,3.2,8.32,4.77,12.65,.23,.62,.48,1.25,.57,1.9,.24,1.64,1.25,2.22,2.77,2.22,13.43,0,26.86,0,40.54,0-.24-1.13-.29-1.79-.51-2.39Zm-79.89-43.62c-.95-.01-1.89-.03-2.84-.05,.28-.86,.57-1.72,.85-2.58,4.66-14.25,8.88-28.42,12.69-42.49,4.66,15.83,8.89,30.21,13.27,45.09-7.89,.14-15.87,.15-23.96,.02Z" fill="#3876b2"/><path d="M388.35,306.96c-.95-2.61-2.72-2.46-4.72-2.46-13.14,0-26.28,.08-39.41-.06-2.76-.03-4.1,.79-5.07,3.45-14.38,39.62-28.84,79.21-43.38,118.78-1.07,2.91-.67,3.74,2.51,3.68,8.48-.16,16.96-.06,25.44-.06q12.22,0,15.71-11.54c.24-.79,.63-1.56,.77-2.36,.45-2.77,1.94-3.7,4.8-3.66,12.14,.16,24.28,.17,36.42,0,2.92-.04,4.17,1.02,4.83,3.67,.92,3.7,2.1,7.33,3.18,10.99,.49,1.65,1.06,2.97,3.3,2.95,13.29-.09,26.57-.04,40.64-.04-15.23-41.66-30.18-82.47-45.03-123.31Zm-15.6,77.31c-6.49-.14-12.98-.04-19.47-.04-1.7,0-3.57,.21-2.74-2.55,4.09-13.6,8.17-27.2,12.26-40.81l1.09,.14c3.86,13.22,7.62,26.46,11.66,39.63,.97,3.15,.08,3.69-2.8,3.63Z" fill="#3876b2"/><path d="M110.32,464.1c-9.58-4.67-24.47-2.94-30.88,3.72-1.35,1.41-2.5,3.13-3.36,4.89-8.44,17.43,1.96,34.15,21.21,34.19,14.48,.03,22.17-6.13,23.93-19.17,1.43-10.57-2.77-19.67-10.9-23.64Zm-14.47,31.96c-6.04-.84-8.53-6.15-7.31-15.58,.71-5.53,4.57-8.71,9.92-8.18,5.65,.55,8.24,4.34,8.23,12.04,0,8.74-3.69,12.73-10.84,11.72Z" fill="#3876b2"/><path d="M428.97,501.87c-4.04-10.69-7.86-21.46-11.83-32.18-3.41-9.21-1.37-7.36-10.55-7.59-1.66,0-3.34,.16-4.98-.04-2.82-.34-4.16,.93-5.07,3.5-4.37,12.33-8.8,24.64-13.39,36.89-1.12,2.98-.48,3.93,2.58,3.63,1.15-.11,2.32,0,3.48-.02,3.8-.05,8.29,1.28,8.94-4.8,.16-1.46,1.68-1.34,2.84-1.34,3.15,0,6.31,.09,9.46-.03,2.19-.08,3.44,.66,3.79,2.91,.39,2.56,1.91,3.54,4.53,3.31,2.47-.21,4.99-.24,7.46,0,3.96,.39,3.87-1.26,2.74-4.25Zm-27.63-12.32c.7-2.29,1.42-4.6,2.16-6.93,.83-2.6,1.67-5.18,2.51-7.71,.26,.89,.52,1.78,.78,2.67,1.16,3.99,2.29,7.96,3.39,11.91-2.95,.02-5.9,.05-8.85,.07Z" fill="#3876b2"/><path d="M609.7,471.23c-2.22-6.29-7.29-8.83-13.56-9.04-6.8-.23-13.61,.08-20.41-.15-3.19-.1-3.94,1.13-3.84,4.05,.18,5.96,.06,11.93,.06,17.9,0,4.62-.11,3.51,.02,18.4,.01,1.45,.03,2.65,.03,3.43,4.1-.08,8.24-.09,12.44-.02,.46,0,.92,.01,1.39,.02,.04-1.99,.08-3.99,.11-5.99,.04-2.53,.07-5.04,.09-7.54,1.82,.1,4.58,.15,7.92-.22,5.65-.63,9.85-.83,12.77-4.12,4.39-4.96,5.12-10.67,2.98-16.72Zm-14.45,8.93c-1.14,1.38-2.96,1.57-5.22,1.75-1.71,.14-3.12-.01-4.06-.16,0-2.92-.02-5.84-.02-8.75,1.8-.34,3.3-.32,4.32-.24,2.14,.17,3.83,.32,4.93,1.61,.54,.64,.87,1.54,.89,2.81,.02,1.37-.29,2.32-.84,2.98Z" fill="#3876b2"/></svg>