<svg xmlns="http://www.w3.org/2000/svg" width="50" height="20.846" viewBox="0 0 50 20.846">
  <g id="Group_4408" data-name="Group 4408" transform="translate(5593.75 7130.014)">
    <path id="Subtraction_8" data-name="Subtraction 8" d="M4.882,20.846H.263c.008-.091.875-10.067.843-13.876C1.072,3.2.011,1.5,0,1.484L2.39,0,3.9,1.484H15.349l.5.732c-.009.011-.9,1.163-.88,4.406.02,3.11.564,13.082.626,14.209v.014H10.752L11.21,7.537H4.67l.212,13.308ZM1.463,15.139v3.4H3.955v-.513H2.047v-1H3.792V16.55H2.047v-.9H3.915v-.512Zm10.084,0v2.153a1.189,1.189,0,0,0,1.322,1.244,1.377,1.377,0,0,0,1.017-.364,1.354,1.354,0,0,0,.361-.88V15.141h-.571v2.153a.758.758,0,0,1-.759.74h-.046a.736.736,0,0,1-.757-.739V15.141Z" transform="translate(-5559.601 -7130.014)" fill="#fff"/>
    <path id="Path_43838" data-name="Path 43838" d="M2305.713,1911.724h4.841l-.266-16.869a3.639,3.639,0,0,0-.5-1.778,2.22,2.22,0,0,0-1.407-.7h-1.211l-1.255-1.455-2.377,1.455a1.43,1.43,0,0,1,.615,1.081c.109.807,0,4.758,0,4.758h1.563s.442-.021.629.851S2305.713,1911.724,2305.713,1911.724Z" transform="translate(-7897.285 -9020.908)" fill="#fff"/>
    <path id="Path_43839" data-name="Path 43839" d="M2446.7,1911.97l.7-6.182h3.98s.275-5.127-.327-6.378-3.4-.88-3.4-.88a38.254,38.254,0,0,0,0-4.371c-.156-1.5-.622-1.643-.622-1.643l2.356-1.335.742,1.335,2.473.187a3.412,3.412,0,0,1,1.685.9,3.825,3.825,0,0,1,.718,1.845l-.229,10.343-1.087,6.182Z" transform="translate(-8032.037 -9021.154)" fill="#fff"/>
    <path id="Path_43840" data-name="Path 43840" d="M2612.411,1904.968h4.432l.325-8.666a5.869,5.869,0,0,0-.468-2.015,1.274,1.274,0,0,0-1.084-.635h-1.845l-1.156-1.523-2.377,1.353a3.175,3.175,0,0,1,.559,1.877,35.832,35.832,0,0,1,0,4.025s1.765-.36,2.092.65S2612.411,1904.968,2612.411,1904.968Z" transform="translate(-8185.973 -9022.043)" fill="#fff"/>
    <path id="Path_43841" data-name="Path 43841" d="M2612.411,1904.968h4.432l.325-8.666a5.869,5.869,0,0,0-.468-2.015,1.274,1.274,0,0,0-1.084-.635h-1.845l-1.156-1.523-2.377,1.353a3.175,3.175,0,0,1,.559,1.877,35.832,35.832,0,0,1,0,4.025s1.765-.36,2.092.65S2612.411,1904.968,2612.411,1904.968Z" transform="translate(-8178.042 -9022.043)" fill="#fff"/>
    <path id="Path_43845" data-name="Path 43845" d="M2.587-3.279a1.148,1.148,0,0,0-.1-.259.715.715,0,0,0-.163-.2.725.725,0,0,0-.234-.134.925.925,0,0,0-.311-.048.908.908,0,0,0-.447.1.876.876,0,0,0-.306.279,1.259,1.259,0,0,0-.175.4,1.828,1.828,0,0,0-.057.454,1.828,1.828,0,0,0,.057.454,1.259,1.259,0,0,0,.175.4.876.876,0,0,0,.306.279.908.908,0,0,0,.447.1.806.806,0,0,0,.336-.066A.747.747,0,0,0,2.364-1.7a.854.854,0,0,0,.163-.27A1.292,1.292,0,0,0,2.6-2.3h.553a1.535,1.535,0,0,1-.125.531,1.3,1.3,0,0,1-.288.415,1.273,1.273,0,0,1-.426.27,1.477,1.477,0,0,1-.54.1,1.527,1.527,0,0,1-.651-.134,1.432,1.432,0,0,1-.488-.365,1.634,1.634,0,0,1-.306-.54A2,2,0,0,1,.228-2.69a1.986,1.986,0,0,1,.107-.653,1.634,1.634,0,0,1,.306-.54,1.457,1.457,0,0,1,.488-.367,1.505,1.505,0,0,1,.651-.136,1.715,1.715,0,0,1,.513.075,1.325,1.325,0,0,1,.424.218,1.131,1.131,0,0,1,.3.347,1.207,1.207,0,0,1,.141.467Zm2-1.107h.567L5.136-3.021H6.61l.021-1.365H7.2L7.177-.993H6.61V-2.531H5.136V-.993H4.569Zm5.062,0h.6L11.481-.993h-.608l-.3-.934H9.277l-.3.934H8.388ZM9.431-2.358h.989L9.935-3.751H9.921ZM13.2-2.34,12.01-4.386h.658L13.5-2.857l.865-1.529H15L13.772-2.34V-.993H13.2Z" transform="translate(-5574.588 -7110.493)"/>
    <path id="Path_43846" data-name="Path 43846" d="M.426-4.284h.627L2.6-1.784h.01v-2.5h.565V-.891H2.55l-1.544-2.5H.991v2.5H.426Z" transform="translate(-5553.451 -7110.595)"/>
  </g>
</svg>
